# MagicaVoxel @ ephtracy

# material
mtllib leg_lower.mtl
usemtl palette

# normals
vn -1 0 0
vn 1 0 0
vn 0 0 1
vn 0 0 -1
vn 0 -1 0
vn 0 1 0

# texcoords
vt 0.396484 0.5
vt 0.994141 0.5

# verts
v -3 0 -0
v -3 0 -2
v -3 3 -0
v -3 3 -2
v -3 6 -0
v -3 6 -2
v -1 1 -0
v -1 1 -2
v -1 2 -0
v -1 2 -2
v -1 6 -0
v -1 6 -2
v 1 0 -0
v 1 0 -2
v 1 1 -0
v 1 1 -2
v -3 0 -0
v -3 3 -0
v -3 6 -0
v -2 2 -0
v -2 3 -0
v -1 1 -0
v -1 2 -0
v -1 6 -0
v 1 0 -0
v 1 1 -0
v -3 0 -2
v -3 3 -2
v -3 6 -2
v -2 2 -2
v -2 3 -2
v -1 1 -2
v -1 2 -2
v -1 6 -2
v 1 0 -2
v 1 1 -2
v -3 0 -0
v 1 0 -0
v -3 0 -2
v 1 0 -2
v -1 1 -0
v 1 1 -0
v -1 1 -2
v 1 1 -2
v -3 6 -0
v -1 6 -0
v -3 6 -2
v -1 6 -2

# faces
f 3/2/1 2/2/1 1/2/1
f 4/2/1 2/2/1 3/2/1
f 5/1/1 4/1/1 3/1/1
f 6/1/1 4/1/1 5/1/1
f 7/2/2 8/2/2 9/2/2
f 9/2/2 8/2/2 10/2/2
f 9/1/2 10/1/2 11/1/2
f 11/1/2 10/1/2 12/1/2
f 13/2/2 14/2/2 15/2/2
f 15/2/2 14/2/2 16/2/2
f 20/2/3 18/2/3 17/2/3
f 21/1/3 19/1/3 18/1/3
f 21/2/3 18/2/3 20/2/3
f 22/2/3 20/2/3 17/2/3
f 23/1/3 21/1/3 20/1/3
f 23/2/3 20/2/3 22/2/3
f 24/1/3 19/1/3 21/1/3
f 24/1/3 21/1/3 23/1/3
f 25/2/3 22/2/3 17/2/3
f 26/2/3 22/2/3 25/2/3
f 27/2/4 28/2/4 30/2/4
f 28/1/4 29/1/4 31/1/4
f 30/2/4 28/2/4 31/2/4
f 27/2/4 30/2/4 32/2/4
f 30/1/4 31/1/4 33/1/4
f 32/2/4 30/2/4 33/2/4
f 31/1/4 29/1/4 34/1/4
f 33/1/4 31/1/4 34/1/4
f 27/2/4 32/2/4 35/2/4
f 35/2/4 32/2/4 36/2/4
f 39/2/5 38/2/5 37/2/5
f 40/2/5 38/2/5 39/2/5
f 41/2/6 42/2/6 43/2/6
f 43/2/6 42/2/6 44/2/6
f 45/1/6 46/1/6 47/1/6
f 47/1/6 46/1/6 48/1/6
